<?xml version="1.0" encoding="UTF-8" standalone="no"?>
<!-- Created with Inkscape (http://www.inkscape.org/) -->

<svg
   xmlns:dc="http://purl.org/dc/elements/1.1/"
   xmlns:cc="http://creativecommons.org/ns#"
   xmlns:rdf="http://www.w3.org/1999/02/22-rdf-syntax-ns#"
   xmlns:svg="http://www.w3.org/2000/svg"
   xmlns="http://www.w3.org/2000/svg"
   xmlns:xlink="http://www.w3.org/1999/xlink"
   xmlns:sodipodi="http://sodipodi.sourceforge.net/DTD/sodipodi-0.dtd"
   xmlns:inkscape="http://www.inkscape.org/namespaces/inkscape"
   width="32px"
   height="32px"
   id="svg2985"
   version="1.1"
   inkscape:version="0.48.2 r9819"
   sodipodi:docname="link_highlight.svg"
   inkscape:export-filename="/Users/nils/Documents/Github/osm-isometric-3d/img/link_highlight.png"
   inkscape:export-xdpi="67.5"
   inkscape:export-ydpi="67.5">
  <defs
     id="defs2987">
    <linearGradient
       id="linearGradient3803">
      <stop
         style="stop-color:#00329d;stop-opacity:1;"
         offset="0"
         id="stop3805" />
      <stop
         style="stop-color:#639ccf;stop-opacity:1;"
         offset="1"
         id="stop3807" />
    </linearGradient>
    <linearGradient
       inkscape:collect="always"
       xlink:href="#linearGradient3803"
       id="linearGradient3809"
       x1="23.902714"
       y1="0.47316179"
       x2="24.352657"
       y2="25.381401"
       gradientUnits="userSpaceOnUse" />
    <linearGradient
       inkscape:collect="always"
       xlink:href="#linearGradient3803"
       id="linearGradient3873"
       gradientUnits="userSpaceOnUse"
       x1="7.9830155"
       y1="9.6921682"
       x2="8.218236"
       y2="30.413246"
       gradientTransform="translate(0,2.147262)" />
    <linearGradient
       inkscape:collect="always"
       xlink:href="#linearGradient3803"
       id="linearGradient3875"
       gradientUnits="userSpaceOnUse"
       x1="23.902714"
       y1="0.47316179"
       x2="24.352657"
       y2="25.381401" />
    <linearGradient
       inkscape:collect="always"
       xlink:href="#linearGradient3803"
       id="linearGradient3877"
       gradientUnits="userSpaceOnUse"
       x1="23.902714"
       y1="0.47316179"
       x2="24.352657"
       y2="25.381401" />
    <filter
       inkscape:collect="always"
       id="filter3891"
       x="-0.12144008"
       width="1.2428802"
       y="-0.11859367"
       height="1.2371873">
      <feGaussianBlur
         inkscape:collect="always"
         stdDeviation="1.3773067"
         id="feGaussianBlur3893" />
    </filter>
    <linearGradient
       inkscape:collect="always"
       xlink:href="#linearGradient3803"
       id="linearGradient3899"
       gradientUnits="userSpaceOnUse"
       x1="7.9830155"
       y1="9.6921682"
       x2="8.218236"
       y2="31.96146"
       gradientTransform="translate(4.8331925e-8,2.147262)" />
    <linearGradient
       inkscape:collect="always"
       xlink:href="#linearGradient3803"
       id="linearGradient3930"
       gradientUnits="userSpaceOnUse"
       x1="23.902714"
       y1="0.47316179"
       x2="24.352657"
       y2="25.381401" />
  </defs>
  <sodipodi:namedview
     id="base"
     pagecolor="#ffffff"
     bordercolor="#666666"
     borderopacity="1.0"
     inkscape:pageopacity="0.0"
     inkscape:pageshadow="2"
     inkscape:zoom="10"
     inkscape:cx="19.087329"
     inkscape:cy="19.027907"
     inkscape:current-layer="layer1"
     showgrid="true"
     inkscape:grid-bbox="true"
     inkscape:document-units="px"
     inkscape:window-width="1387"
     inkscape:window-height="856"
     inkscape:window-x="53"
     inkscape:window-y="0"
     inkscape:window-maximized="1" />
  <metadata
     id="metadata2990">
    <rdf:RDF>
      <cc:Work
         rdf:about="">
        <dc:format>image/svg+xml</dc:format>
        <dc:type
           rdf:resource="http://purl.org/dc/dcmitype/StillImage" />
        <dc:title></dc:title>
      </cc:Work>
    </rdf:RDF>
  </metadata>
  <g
     id="layer1"
     inkscape:label="Layer 1"
     inkscape:groupmode="layer">
    <g
       transform="matrix(0.90426736,0,0,0.90426736,2.0110049,34.676025)"
       id="g3865"
       style="filter:url(#filter3891)">
      <path
         style="fill:none;stroke:url(#linearGradient3873);stroke-width:3;stroke-linecap:butt;stroke-linejoin:miter;stroke-miterlimit:4;stroke-opacity:1;stroke-dasharray:none"
         d="m 8.636178,20.109011 -5.4018582,5.465502 c -3.7670992,4.353688 1.0080631,8.802011 4.7661072,4.851208 l 0,0 0,0 c 9.911646,-10.028423 9.769399,-10.169014 9.769399,-10.169014 2.124456,-2.358887 1.773455,-4.719936 0.385156,-5.773181"
         id="path3867"
         inkscape:connector-curvature="0" />
      <path
         id="path3869"
         d="M 22.303776,13.783564 27.705634,8.318062 C 31.472733,3.964374 26.697571,-0.4839486 22.939527,3.466854 l 0,0 0,0 c -9.911646,10.028423 -9.769399,10.169014 -9.769399,10.169014 -2.124456,2.358887 -1.773455,4.719936 -0.385156,5.773181"
         style="fill:none;stroke:url(#linearGradient3875);stroke-width:3;stroke-linecap:butt;stroke-linejoin:miter;stroke-miterlimit:4;stroke-opacity:1;stroke-dasharray:none"
         inkscape:connector-curvature="0" />
      <path
         inkscape:connector-curvature="0"
         style="fill:none;stroke:url(#linearGradient3877);stroke-width:3;stroke-linecap:butt;stroke-linejoin:miter;stroke-miterlimit:4;stroke-opacity:1;stroke-dasharray:none"
         d="M 22.303776,13.783564 27.705634,8.318062 C 31.472733,3.964374 26.697571,-0.4839486 22.939527,3.466854 l 0,0 0,0 c -9.911646,10.028423 -9.769399,10.169014 -9.769399,10.169014 -2.124456,2.358887 -1.773455,4.719936 -0.385156,5.773181"
         id="path3871" />
    </g>
    <g
       id="g3789"
       transform="matrix(0.90426736,0,0,0.90426736,1.9919484,0.7055291)">
      <path
         style="font-size:medium;font-style:normal;font-variant:normal;font-weight:normal;font-stretch:normal;text-indent:0;text-align:start;text-decoration:none;line-height:normal;letter-spacing:normal;word-spacing:normal;text-transform:none;direction:ltr;block-progression:tb;writing-mode:lr-tb;text-anchor:start;baseline-shift:baseline;color:#000000;fill:url(#linearGradient3899);fill-opacity:1;stroke:none;stroke-width:1.07363092999999998;marker:none;visibility:visible;display:inline;overflow:visible;enable-background:accumulate;font-family:Sans;-inkscape-font-specification:Sans"
         d="M 19.0625,13.732964 17.25,15.678512 c 0.625347,0.474425 1.142634,1.634508 -0.59375,3.5625 l -0.96875,1.0625 0.03125,0.03125 c -0.09768,0.106064 -0.09529,0.08654 -0.21875,0.21875 -1.184048,1.267983 -3.611662,3.803333 -8.5625,8.8125 l -0.03125,0.03125 c -1.4666013,1.541827 -2.4717912,1.231993 -3.0625,0.65625 -0.5907088,-0.575743 -0.9816949,-1.751469 0.53125,-3.5 l 5.3125,-5.375 -2.125,-2.125 -5.40625,5.46875 -0.03125,0.03125 -0.03125,0.03125 c -2.25415435,2.605157 -2.13835865,5.84461 -0.34375,7.59375 1.7861802,1.740925 5.022885,1.688299 7.3125,-0.6875 0.0108,-0.01121 0.02049,-0.01994 0.03125,-0.03125 4.925227,-4.983758 7.375376,-7.539007 8.59375,-8.84375 0.61137,-0.654709 0.916159,-1.005598 1.09375,-1.21875 0.03893,-0.04673 0.06336,-0.08644 0.09375,-0.125 0.03892,-0.04939 0.08254,-0.09193 0.125,-0.15625 0.02268,-0.03436 0.06152,-0.126496 0.09375,-0.1875 0.02149,-0.04067 0.03364,-0.05215 0.0625,-0.125 2.117809,-2.7128 1.945616,-5.523366 -0.09375,-7.070548 z"
         id="path3017"
         inkscape:connector-curvature="0"
         sodipodi:nodetypes="cccccsccsccccccsccscccccc" />
      <path
         inkscape:connector-curvature="0"
         style="fill:none;stroke:url(#linearGradient3930);stroke-width:3;stroke-linecap:butt;stroke-linejoin:miter;stroke-miterlimit:4;stroke-opacity:1;stroke-dasharray:none"
         d="M 22.303776,13.783564 27.705634,8.318062 C 31.472733,3.964374 26.697571,-0.4839486 22.939527,3.466854 l 0,0 0,0 c -9.911646,10.028423 -9.769399,10.169014 -9.769399,10.169014 -2.124456,2.358887 -1.773455,4.719936 -0.385156,5.773181"
         id="path3019" />
      <path
         id="path3857"
         d="M 22.303776,13.783564 27.705634,8.318062 C 31.472733,3.964374 26.697571,-0.4839486 22.939527,3.466854 l 0,0 0,0 c -9.911646,10.028423 -9.769399,10.169014 -9.769399,10.169014 -2.124456,2.358887 -1.773455,4.719936 -0.385156,5.773181"
         style="fill:none;stroke:url(#linearGradient3809);stroke-width:3;stroke-linecap:butt;stroke-linejoin:miter;stroke-miterlimit:4;stroke-opacity:1;stroke-dasharray:none"
         inkscape:connector-curvature="0"
         inkscape:export-xdpi="67.5"
         inkscape:export-ydpi="67.5" />
    </g>
  </g>
</svg>
