<?xml version="1.0" encoding="UTF-8" standalone="no"?>
<!-- Created with Inkscape (http://www.inkscape.org/) -->

<svg
   xmlns:dc="http://purl.org/dc/elements/1.1/"
   xmlns:cc="http://creativecommons.org/ns#"
   xmlns:rdf="http://www.w3.org/1999/02/22-rdf-syntax-ns#"
   xmlns:svg="http://www.w3.org/2000/svg"
   xmlns="http://www.w3.org/2000/svg"
   xmlns:xlink="http://www.w3.org/1999/xlink"
   xmlns:sodipodi="http://sodipodi.sourceforge.net/DTD/sodipodi-0.dtd"
   xmlns:inkscape="http://www.inkscape.org/namespaces/inkscape"
   width="32px"
   height="32px"
   id="svg2985"
   version="1.1"
   inkscape:version="0.48.2 r9819"
   sodipodi:docname="link_highlight.svg"
   inkscape:export-filename="/Users/nils/Documents/Github/osm-isometric-3d/img/link_highlight.png"
   inkscape:export-xdpi="90"
   inkscape:export-ydpi="90">
  <defs
     id="defs2987">
    <linearGradient
       id="linearGradient3899">
      <stop
         style="stop-color:#ffffff;stop-opacity:1;"
         offset="0"
         id="stop3901" />
      <stop
         style="stop-color:#ebebeb;stop-opacity:0;"
         offset="1"
         id="stop3903" />
    </linearGradient>
    <linearGradient
       id="linearGradient3865">
      <stop
         style="stop-color:#2884ff;stop-opacity:1;"
         offset="0"
         id="stop3867" />
      <stop
         style="stop-color:#245f79;stop-opacity:0.40869564;"
         offset="1"
         id="stop3869" />
    </linearGradient>
    <linearGradient
       id="linearGradient3839">
      <stop
         style="stop-color:#478bd1;stop-opacity:1;"
         offset="0"
         id="stop3841" />
      <stop
         style="stop-color:#c2cfda;stop-opacity:1;"
         offset="1"
         id="stop3843" />
    </linearGradient>
    <filter
       inkscape:collect="always"
       id="filter3877"
       x="-0.1201836"
       width="1.2403672"
       y="-0.11981696"
       height="1.2396339">
      <feGaussianBlur
         inkscape:collect="always"
         stdDeviation="0.87230669"
         id="feGaussianBlur3879" />
    </filter>
    <linearGradient
       inkscape:collect="always"
       xlink:href="#linearGradient3865"
       id="linearGradient3887"
       gradientUnits="userSpaceOnUse"
       gradientTransform="translate(0.6,-0.1)"
       x1="21.160236"
       y1="5.5726562"
       x2="26.179718"
       y2="24.072657" />
    <linearGradient
       inkscape:collect="always"
       xlink:href="#linearGradient3899"
       id="linearGradient3905"
       x1="19.360237"
       y1="7.0726562"
       x2="22.579718"
       y2="24.772655"
       gradientUnits="userSpaceOnUse" />
    <linearGradient
       inkscape:collect="always"
       xlink:href="#linearGradient3899"
       id="linearGradient3913"
       x1="5.2602358"
       y1="17.372656"
       x2="14.079718"
       y2="36.172653"
       gradientUnits="userSpaceOnUse" />
    <linearGradient
       inkscape:collect="always"
       xlink:href="#linearGradient3865"
       id="linearGradient3917"
       gradientUnits="userSpaceOnUse"
       gradientTransform="translate(0.6,-0.1)"
       x1="21.160236"
       y1="5.5726562"
       x2="26.179718"
       y2="24.072657" />
    <filter
       inkscape:collect="always"
       id="filter3925">
      <feGaussianBlur
         inkscape:collect="always"
         stdDeviation="0.69785753"
         id="feGaussianBlur3927" />
    </filter>
    <filter
       inkscape:collect="always"
       id="filter3933"
       x="-0.1201836"
       width="1.2403672"
       y="-0.11981696"
       height="1.2396339">
      <feGaussianBlur
         inkscape:collect="always"
         stdDeviation="0.87230669"
         id="feGaussianBlur3935" />
    </filter>
  </defs>
  <sodipodi:namedview
     id="base"
     pagecolor="#ffffff"
     bordercolor="#666666"
     borderopacity="1.0"
     inkscape:pageopacity="0.0"
     inkscape:pageshadow="2"
     inkscape:zoom="10"
     inkscape:cx="-1.7"
     inkscape:cy="19.027907"
     inkscape:current-layer="g3789"
     showgrid="true"
     inkscape:grid-bbox="true"
     inkscape:document-units="px"
     inkscape:window-width="1386"
     inkscape:window-height="856"
     inkscape:window-x="54"
     inkscape:window-y="0"
     inkscape:window-maximized="1" />
  <metadata
     id="metadata2990">
    <rdf:RDF>
      <cc:Work
         rdf:about="">
        <dc:format>image/svg+xml</dc:format>
        <dc:type
           rdf:resource="http://purl.org/dc/dcmitype/StillImage" />
        <dc:title></dc:title>
      </cc:Work>
    </rdf:RDF>
  </metadata>
  <g
     id="layer1"
     inkscape:label="Layer 1"
     inkscape:groupmode="layer">
    <g
       id="g3789"
       transform="matrix(0.87216095,0,0,0.87216095,2.4143716,1.6616487)">
      <path
         id="path3937"
         d="m 22.286689,14.232303 5.401858,-5.4655024 c 3.767099,-4.353688 -1.008063,-8.80201056 -4.766107,-4.851208 l 0,0 0,0 C 13.010794,13.944016 13.153041,14.084607 13.153041,14.084607 c -2.124456,2.358887 -1.773455,4.719936 -0.385156,5.773181"
         style="opacity:0.6;fill:none;stroke:#2e2e2e;stroke-width:4.34174252;stroke-linecap:butt;stroke-linejoin:miter;stroke-miterlimit:4;stroke-opacity:1;stroke-dasharray:none;filter:url(#filter3933)"
         inkscape:connector-curvature="0"
         transform="matrix(-1,0,0,-1,31.153948,32.880058)" />
      <path
         inkscape:connector-curvature="0"
         style="opacity:0.6;fill:none;stroke:#2e2e2e;stroke-width:4.34174252;stroke-linecap:butt;stroke-linejoin:miter;stroke-miterlimit:4;stroke-opacity:1;stroke-dasharray:none;filter:url(#filter3933)"
         d="m 22.286689,14.232303 5.401858,-5.4655024 c 3.767099,-4.353688 -1.008063,-8.80201056 -4.766107,-4.851208 l 0,0 0,0 C 13.010794,13.944016 13.153041,14.084607 13.153041,14.084607 c -2.124456,2.358887 -1.773455,4.719936 -0.385156,5.773181"
         id="path3889" />
      <path
         id="path3847"
         d="M 22.303776,13.783564 27.705634,8.318062 C 31.472733,3.964374 26.697571,-0.4839486 22.939527,3.466854 l 0,0 0,0 c -9.911646,10.028423 -9.769399,10.169014 -9.769399,10.169014 -2.124456,2.358887 -1.773455,4.719936 -0.385156,5.773181"
         style="fill:none;stroke:url(#linearGradient3905);stroke-width:3;stroke-linecap:butt;stroke-linejoin:miter;stroke-miterlimit:4;stroke-opacity:1;stroke-dasharray:none;opacity:0.5"
         inkscape:connector-curvature="0" />
      <path
         inkscape:connector-curvature="0"
         id="path3017"
         d="m 8.636178,17.961749 -5.4018582,5.465502 c -3.7670992,4.353688 1.0080631,8.802011 4.7661072,4.851208 l 0,0 0,0 c 9.911646,-10.028423 9.769399,-10.169014 9.769399,-10.169014 2.124456,-2.358887 1.773455,-4.719936 0.385156,-5.773181"
         style="fill:none;stroke:url(#linearGradient3913);stroke-width:3;stroke-linecap:butt;stroke-linejoin:miter;stroke-miterlimit:4;stroke-opacity:1;stroke-dasharray:none;opacity:0.5" />
      <path
         inkscape:connector-curvature="0"
         style="opacity:0.6;fill:none;stroke:url(#linearGradient3887);stroke-width:1.98359013000000006;stroke-linecap:butt;stroke-linejoin:miter;stroke-miterlimit:4;stroke-opacity:1;stroke-dasharray:none;filter:url(#filter3877)"
         d="M 22.903776,13.683564 28.305634,8.218062 C 32.072733,3.864374 27.297571,-0.5839486 23.539527,3.366854 l 0,0 0,0 c -9.911646,10.028423 -9.769399,10.169014 -9.769399,10.169014 -2.124456,2.358887 -1.773455,4.719936 -0.385156,5.773181"
         id="path3863"
         transform="matrix(1.003671,0,0,1.0128957,-0.1269811,0.01365868)" />
      <path
         transform="matrix(-1.003671,0,0,-1.0128957,31.966934,32.231655)"
         id="path3915"
         d="M 22.903776,13.683564 28.305634,8.218062 C 32.072733,3.864374 27.297571,-0.5839486 23.539527,3.366854 l 0,0 0,0 c -9.911646,10.028423 -9.769399,10.169014 -9.769399,10.169014 -2.124456,2.358887 -1.773455,4.719936 -0.385156,5.773181"
         style="opacity:0.6;fill:none;stroke:url(#linearGradient3917);stroke-width:1.48769258999999998;stroke-linecap:butt;stroke-linejoin:miter;stroke-miterlimit:4;stroke-opacity:1;stroke-dasharray:none;filter:url(#filter3925)"
         inkscape:connector-curvature="0" />
    </g>
  </g>
</svg>
